<svg width="140" height="22" viewBox="0 0 140 22" fill="none" xmlns="http://www.w3.org/2000/svg">
<g clip-path="url(#clip0_27644_65372)">
<path d="M19.7083 8.50305C17.4331 7.9892 14.86 7.82555 15.483 3.80968L20.0842 5.05666L21.6585 5.4265C21.5807 2.41541 19.0346 0 15.9028 0H5.73204C2.563 0 0 2.48415 0 5.54105V10.1984C0 11.7661 0.870133 12.1982 1.96034 12.4436H1.95357C4.22878 12.9608 6.80193 13.1277 6.17896 17.1403L1.57775 15.8933L0.00338573 15.5267C0.0677146 18.528 2.60363 20.9467 5.73204 20.9467H15.9366C19.0989 20.9467 21.6687 18.4625 21.6687 15.4056V10.745C21.6687 9.18709 20.7952 8.74524 19.7083 8.50305ZM10.831 16.813C9.82201 13.8805 7.42152 11.4847 4.27618 10.4733C7.42152 9.46201 9.82201 7.07278 10.831 4.14024C11.8433 7.07278 14.2404 9.46528 17.3891 10.4766C14.2404 11.4912 11.8433 13.8805 10.831 16.813Z" fill="#0F0F0F"/>
<path d="M82.5938 3.05744C82.5938 2.08538 83.3826 1.3457 84.3848 1.3457C85.387 1.3457 86.1759 2.08538 86.1759 3.05744C86.1759 4.0295 85.387 4.76918 84.3848 4.76918C83.3826 4.76918 82.5938 4.0295 82.5938 3.05744Z" fill="#0F0F0F"/>
<path d="M85.7982 6.28906H82.9609V17.0602H85.7982V6.28906Z" fill="#0F0F0F"/>
<path d="M87.9365 10.2184V17.0621H90.7737V11.1086C90.7737 7.87826 95.8184 7.87826 95.8184 11.1086V17.0621H98.6557V10.2184C98.6557 4.65116 87.9297 4.65116 87.9297 10.2184H87.9365Z" fill="#0F0F0F"/>
<path d="M44.8777 7.28068C41.9626 4.94055 35.5703 5.91915 35.5703 10.2132V17.0569H38.4076V11.1035C38.4076 7.87308 43.4523 7.87308 43.4523 11.1035V17.0569H46.2895V11.1035C46.2895 7.87308 51.3343 7.87308 51.3343 11.1035V17.0569H54.1715V10.2132C54.1715 5.91915 47.7793 4.94055 44.8641 7.28068H44.8743H44.8777Z" fill="#0F0F0F"/>
<path d="M105.892 6.02866C102.483 6.02866 99.9062 8.45717 99.9062 11.6679C99.9062 14.8786 102.486 17.3071 105.936 17.3071C108.564 17.3071 110.714 15.9358 111.618 13.9066H108.465C107.934 14.5055 107.054 14.9179 106.001 14.9179C104.474 14.9179 103.312 14.0113 102.947 12.6203H111.79C111.851 12.3454 111.878 12.0083 111.878 11.7137C111.878 8.46044 109.298 6.03194 105.892 6.03194V6.02539V6.02866ZM102.967 10.6108C103.36 9.27867 104.453 8.41135 105.892 8.41135C107.331 8.41135 108.492 9.29831 108.838 10.6108H102.96H102.967Z" fill="#0F0F0F"/>
<path d="M78.1417 7.50538C77.2445 6.57915 76.0019 6.0293 74.4953 6.0293C71.4143 6.0293 69.0781 8.35307 69.0781 11.3969C69.0781 14.4407 71.4143 16.7645 74.5224 16.7645C76.0087 16.7645 77.2513 16.2146 78.1485 15.308V16.0248C78.1485 17.8216 77.0346 18.8984 75.2842 18.8984C74.15 18.8984 73.1681 18.4402 72.7516 17.7005H69.7654C70.297 19.9163 72.4706 21.3204 75.2605 21.3204C78.6902 21.3204 80.9857 19.1668 80.9857 15.8939V6.28458H78.1485V7.51193V7.50538H78.1417ZM75.0878 14.1985C73.3171 14.1985 72.0068 12.9973 72.0068 11.3903C72.0068 9.78334 73.3171 8.60181 75.0878 8.60181C76.8585 8.60181 78.1485 9.80297 78.1485 11.3903C78.1485 12.9777 76.8179 14.1985 75.0878 14.1985Z" fill="#0F0F0F"/>
<path d="M139.998 8.92953V6.28501H137.476V3.06445H134.638V6.28501H132.133C129.452 6.28501 126.773 7.676 126.773 10.458V17.0627H129.611V11.3482C129.611 9.73139 130.874 8.9328 132.133 8.9328H134.638V13.0076C134.638 15.7896 137.32 17.1806 139.998 17.1806V14.5459C138.735 14.5459 137.476 13.7374 137.476 12.1206V8.9328H139.998V8.92298V8.92953Z" fill="#0F0F0F"/>
<path d="M64.7266 6.28493V7.55155C64.7266 7.55155 64.7063 7.52536 64.6962 7.51555C61.4831 4.14444 55.663 7.00824 55.6562 11.6656C55.6562 16.323 61.4797 19.1802 64.6962 15.8157C64.7063 15.8059 64.7165 15.7895 64.7266 15.7797V17.0463H67.5639V6.28493H64.7266ZM61.6456 14.6407C59.8952 14.6407 58.5849 13.3544 58.5849 11.6623C58.5849 9.97024 59.8952 8.68398 61.6456 8.68398C63.396 8.68398 64.7266 9.97024 64.7266 11.6623C64.7266 13.3544 63.4163 14.6407 61.6456 14.6407Z" fill="#0F0F0F"/>
<path d="M33.7904 3.91602H30.9531V17.0568H33.7904V3.91602Z" fill="#0F0F0F"/>
<path d="M117.162 2.88086H120.626L126.259 17.0591H123.05L122.007 14.3066H115.693L114.673 17.0591H111.508L117.162 2.88086ZM121.008 11.6948L118.862 6.00322L116.695 11.6948H121.012H121.008Z" fill="#0F0F0F"/>
</g>
<defs>
<clipPath id="clip0_27644_65372">
<rect width="140" height="21.3198" fill="white"/>
</clipPath>
</defs>
</svg>
