<svg width="40" height="40" viewBox="0 0 40 40" fill="none" xmlns="http://www.w3.org/2000/svg">
<path d="M36.3847 16.2512C32.1895 15.2657 27.4335 14.9565 28.5935 7.28503L37.0807 9.66184L40 10.3575C39.8453 4.61836 35.1474 0 29.3669 0H10.5753C4.73675 0 0 4.7343 0 10.5701V19.4589C0 22.4348 1.60486 23.2657 3.61549 23.7488C7.81074 24.7343 12.5665 25.0435 11.4065 32.715L2.91929 30.3382L0 29.6425C0.115998 35.3816 4.79475 40 10.5753 40H29.4249C35.2635 40 40 35.2657 40 29.43V20.5411C40 17.5652 38.3954 16.7343 36.3847 16.2512ZM32.1122 20C26.3124 21.9324 21.8851 26.4928 20.0098 32.0966C18.1538 26.5121 13.7266 21.9324 7.90735 20C13.7072 18.0676 18.1345 13.4879 20.0098 7.90338C21.8658 13.4879 26.293 18.0676 32.1122 20Z" fill="white"/>
</svg>
