<svg preserveAspectRatio="none" width="100%" height="100%" overflow="visible" style="display: block;" viewBox="0 0 18.334 16.666" fill="none" xmlns="http://www.w3.org/2000/svg">
<path id="Union" d="M10 16.666H8.33398V15H10V16.666ZM8.33398 15H6.66699V13.333H8.33398V15ZM11.667 15H10V13.333H11.667V15ZM6.66699 13.333H5V11.666H6.66699V13.333ZM13.334 13.333H11.667V11.666H13.334V13.333ZM5 11.666H3.33398V10H5V11.666ZM15 11.666H13.334V10H15V11.666ZM3.33398 10H1.66699V8.33301H3.33398V10ZM16.667 10H15V8.33301H16.667V10ZM1.66699 8.33301H0V3.33301H1.66699V8.33301ZM18.334 8.33301H16.667V3.33301H18.334V8.33301ZM10 5H8.33398V3.33301H10V5ZM3.33398 3.33301H1.66699V1.66602H3.33398V3.33301ZM8.33398 3.33301H6.66699V1.66602H8.33398V3.33301ZM11.667 3.33301H10V1.66602H11.667V3.33301ZM16.667 3.33301H15V1.66602H16.667V3.33301ZM6.66699 1.66602H3.33398V0H6.66699V1.66602ZM15 1.66602H11.667V0H15V1.66602Z" fill="var(--fill-0, #FCFCFC)"/>
</svg>
